<?xml version="1.0" encoding="utf-8"?>
<!-- Generator: Adobe Illustrator 26.5.1, SVG Export Plug-In . SVG Version: 6.00 Build 0)  -->
<svg version="1.1" id="Layer_1" xmlns="http://www.w3.org/2000/svg" xmlns:xlink="http://www.w3.org/1999/xlink" x="0px" y="0px"
	 viewBox="0 0 256 256" style="enable-background:new 0 0 256 256;" xml:space="preserve" fill="#A49B9B">
<g>
	<g>
		<rect x="122.92" y="44.46" transform="matrix(0.9986 -0.0523 0.0523 0.9986 -2.4512 6.5511)" width="2" height="11.28"/>
	</g>
	<g>
		<rect x="131.08" y="200.26" transform="matrix(0.9986 -0.0523 0.0523 0.9986 -10.5905 7.1916)" width="2" height="11.28"/>
	</g>
	<g>
		<rect x="118.85" y="44.78" transform="matrix(0.9945 -0.1045 0.1045 0.9945 -4.6141 12.8044)" width="2" height="11.28"/>
	</g>
	<g>
		<rect x="135.15" y="199.94" transform="matrix(0.9945 -0.1045 0.1045 0.9945 -20.7445 15.3594)" width="2" height="11.28"/>
	</g>
	<g>
		<rect x="114.8" y="45.32" transform="matrix(0.9877 -0.1565 0.1565 0.9877 -6.5474 18.7501)" width="2" height="11.28"/>
	</g>
	<g>
		<rect x="139.2" y="199.41" transform="matrix(0.9877 -0.1565 0.1565 0.9877 -30.3624 24.4685)" width="2" height="11.28"/>
	</g>
	<g>
		<rect x="110.78" y="46.06" transform="matrix(0.9781 -0.2079 0.2079 0.9781 -8.3068 24.3743)" width="2" height="11.28"/>
	</g>
	<g>
		<rect x="143.22" y="198.67" transform="matrix(0.9781 -0.2079 0.2079 0.9781 -39.3311 34.4553)" width="2" height="11.28"/>
	</g>
	<g>
		<rect x="106.81" y="47.01" transform="matrix(0.9659 -0.2588 0.2588 0.9659 -9.9532 29.6957)" width="2" height="11.27"/>
	</g>
	<g>
		<rect x="147.19" y="197.71" transform="matrix(0.9659 -0.2588 0.2588 0.9659 -47.5755 45.2762)" width="2" height="11.28"/>
	</g>
	<g>
		<rect x="102.89" y="48.17" transform="matrix(0.9511 -0.309 0.309 0.9511 -11.5435 34.7392)" width="2" height="11.28"/>
	</g>
	<g>
		<rect x="151.11" y="196.55" transform="matrix(0.9511 -0.309 0.309 0.9511 -55.0361 56.9002)" width="2" height="11.28"/>
	</g>
	<g>
		<rect x="99.04" y="49.54" transform="matrix(0.9336 -0.3584 0.3584 0.9336 -13.128 39.5204)" width="2" height="11.28"/>
	</g>
	<g>
		<rect x="154.96" y="195.19" transform="matrix(0.9336 -0.3584 0.3584 0.9336 -61.6147 69.2341)" width="2" height="11.28"/>
	</g>
	<g>
		<rect x="95.27" y="51.1" transform="matrix(0.9135 -0.4068 0.4068 0.9135 -14.7546 44.0687)" width="2" height="11.28"/>
	</g>
	<g>
		<rect x="158.73" y="193.63" transform="matrix(0.9135 -0.4068 0.4068 0.9135 -67.2494 82.2158)" width="2" height="11.28"/>
	</g>
	<g>
		<rect x="91.59" y="52.86" transform="matrix(0.891 -0.454 0.454 0.891 -16.4654 48.4128)" width="2" height="11.28"/>
	</g>
	<g>
		<rect x="162.41" y="191.87" transform="matrix(0.891 -0.454 0.454 0.891 -71.8545 95.7155)" width="2" height="11.28"/>
	</g>
	<g>
		<rect x="88" y="54.81" transform="matrix(0.866 -0.5 0.5 0.866 -18.299 52.5967)" width="2" height="11.28"/>
	</g>
	<g>
		<rect x="166" y="189.92" transform="matrix(0.866 -0.5 0.5 0.866 -75.4045 109.7029)" width="2" height="11.28"/>
	</g>
	<g>
		<rect x="84.51" y="56.94" transform="matrix(0.8387 -0.5446 0.5446 0.8387 -20.2864 56.6684)" width="2" height="11.27"/>
	</g>
	<g>
		<rect x="169.49" y="187.79" transform="matrix(0.8387 -0.5446 0.5446 0.8387 -77.8402 124.0542)" width="2" height="11.27"/>
	</g>
	<g>
		<rect x="81.15" y="59.25" transform="matrix(0.809 -0.5878 0.5878 0.809 -22.4529 60.6813)" width="2" height="11.28"/>
	</g>
	<g>
		<rect x="172.85" y="185.47" transform="matrix(0.809 -0.5878 0.5878 0.809 -79.1299 138.6925)" width="2" height="11.28"/>
	</g>
	<g>
		<rect x="77.91" y="61.74" transform="matrix(0.7772 -0.6293 0.6293 0.7772 -24.8165 64.6727)" width="2" height="11.28"/>
	</g>
	<g>
		<rect x="176.09" y="182.99" transform="matrix(0.7772 -0.6293 0.6293 0.7772 -79.2384 153.4793)" width="2" height="11.28"/>
	</g>
	<g>
		<rect x="74.8" y="64.39" transform="matrix(0.7431 -0.6692 0.6692 0.7431 -27.3887 68.7133)" width="2" height="11.28"/>
	</g>
	<g>
		<rect x="179.2" y="180.33" transform="matrix(0.7431 -0.6692 0.6692 0.7431 -78.1551 168.3517)" width="2" height="11.28"/>
	</g>
	<g>
		<rect x="71.84" y="67.2" transform="matrix(0.7072 -0.7071 0.7071 0.7072 -30.1718 72.8342)" width="2" height="11.28"/>
	</g>
	<g>
		<rect x="182.16" y="177.52" transform="matrix(0.7071 -0.7071 0.7071 0.7071 -75.8672 183.1597)" width="2" height="11.28"/>
	</g>
	<g>
		<rect x="69.03" y="70.17" transform="matrix(0.6691 -0.7432 0.7432 0.6691 -33.1622 77.1253)" width="2" height="11.28"/>
	</g>
	<g>
		<rect x="184.97" y="174.56" transform="matrix(0.6691 -0.7432 0.7432 0.6691 -72.3806 197.8312)" width="2" height="11.28"/>
	</g>
	<g>
		<rect x="66.38" y="73.27" transform="matrix(0.6293 -0.7772 0.7772 0.6293 -36.3483 81.6129)" width="2" height="11.28"/>
	</g>
	<g>
		<rect x="187.62" y="171.45" transform="matrix(0.6293 -0.7772 0.7772 0.6293 -67.7074 212.2355)" width="2" height="11.28"/>
	</g>
	<g>
		<rect x="63.89" y="76.51" transform="matrix(0.5877 -0.809 0.809 0.5877 -39.7108 86.3653)" width="2" height="11.28"/>
	</g>
	<g>
		<rect x="190.11" y="168.21" transform="matrix(0.5877 -0.809 0.809 0.5877 -61.8688 226.2863)" width="2" height="11.28"/>
	</g>
	<g>
		<rect x="61.58" y="79.88" transform="matrix(0.5446 -0.8387 0.8387 0.5446 -43.2233 91.421)" width="2" height="11.28"/>
	</g>
	<g>
		<rect x="192.42" y="164.85" transform="matrix(0.5446 -0.8387 0.8387 0.5446 -54.9056 239.848)" width="2" height="11.28"/>
	</g>
	<g>
		<rect x="59.44" y="83.36" transform="matrix(0.5 -0.866 0.866 0.5 -46.8521 96.8434)" width="2" height="11.28"/>
	</g>
	<g>
		<rect x="194.56" y="161.37" transform="matrix(0.5 -0.866 0.866 0.5 -46.8518 252.8576)" width="2" height="11.28"/>
	</g>
	<g>
		<rect x="57.49" y="86.95" transform="matrix(0.454 -0.891 0.891 0.454 -50.5556 102.6716)" width="2" height="11.28"/>
	</g>
	<g>
		<rect x="196.51" y="157.78" transform="matrix(0.4539 -0.891 0.891 0.4539 -37.7562 265.2228)" width="2" height="11.28"/>
	</g>
	<g>
		<rect x="55.74" y="90.63" transform="matrix(0.4067 -0.9136 0.9136 0.4067 -54.2887 108.9487)" width="2" height="11.28"/>
	</g>
	<g>
		<rect x="198.26" y="154.09" transform="matrix(0.4067 -0.9136 0.9136 0.4067 -27.7016 276.8022)" width="2" height="11.28"/>
	</g>
	<g>
		<rect x="54.17" y="94.41" transform="matrix(0.3583 -0.9336 0.9336 0.3583 -57.9978 115.7074)" width="2" height="11.28"/>
	</g>
	<g>
		<rect x="199.83" y="150.32" transform="matrix(0.3584 -0.9336 0.9336 0.3584 -16.7441 287.5477)" width="2" height="11.28"/>
	</g>
	<g>
		<rect x="52.81" y="98.26" transform="matrix(0.309 -0.9511 0.9511 0.309 -61.628 122.966)" width="2" height="11.28"/>
	</g>
	<g>
		<rect x="201.19" y="146.47" transform="matrix(0.309 -0.9511 0.9511 0.309 -4.9526 297.3953)" width="2" height="11.28"/>
	</g>
	<g>
		<rect x="51.65" y="102.17" transform="matrix(0.2589 -0.9659 0.9659 0.2589 -65.1146 130.7579)" width="2" height="11.28"/>
	</g>
	<g>
		<rect x="202.35" y="142.55" transform="matrix(0.2588 -0.9659 0.9659 0.2588 7.5841 306.2634)" width="2" height="11.28"/>
	</g>
	<g>
		<rect x="50.7" y="106.14" transform="matrix(0.2079 -0.9782 0.9782 0.2079 -68.3893 139.1126)" width="2" height="11.27"/>
	</g>
	<g>
		<rect x="203.3" y="138.58" transform="matrix(0.208 -0.9781 0.9781 0.208 20.75 314.0629)" width="2" height="11.27"/>
	</g>
	<g>
		<rect x="49.95" y="110.16" transform="matrix(0.1564 -0.9877 0.9877 0.1564 -71.3892 148.0103)" width="2" height="11.28"/>
	</g>
	<g>
		<rect x="204.05" y="134.57" transform="matrix(0.1564 -0.9877 0.9877 0.1564 34.4968 320.797)" width="2" height="11.28"/>
	</g>
	<g>
		<rect x="49.42" y="114.21" transform="matrix(0.1045 -0.9945 0.9945 0.1045 -74.0408 157.4621)" width="2" height="11.28"/>
	</g>
	<g>
		<rect x="204.58" y="130.52" transform="matrix(0.1045 -0.9945 0.9945 0.1045 48.6812 326.375)" width="2" height="11.28"/>
	</g>
	<g>
		<rect x="49.1" y="118.28" transform="matrix(0.0523 -0.9986 0.9986 0.0523 -76.2689 167.4665)" width="2" height="11.28"/>
	</g>
	<g>
		<rect x="204.9" y="126.44" transform="matrix(0.0524 -0.9986 0.9986 0.0524 63.2106 330.7801)" width="2" height="11.28"/>
	</g>
	<g>
		<rect x="44.35" y="127" width="11.28" height="2"/>
	</g>
	<g>
		<rect x="200.37" y="127" width="11.28" height="2"/>
	</g>
	<g>
		<rect x="44.46" y="131.08" transform="matrix(0.9986 -0.0527 0.0527 0.9986 -6.8928 2.8245)" width="11.28" height="2"/>
	</g>
	<g>
		<rect x="200.26" y="122.92" transform="matrix(0.9986 -0.0527 0.0527 0.9986 -6.2457 11.0258)" width="11.28" height="2"/>
	</g>
	<g>
		<rect x="44.78" y="135.15" transform="matrix(0.9945 -0.1045 0.1045 0.9945 -13.9563 6.0164)" width="11.28" height="2"/>
	</g>
	<g>
		<rect x="199.94" y="118.85" transform="matrix(0.9945 -0.1045 0.1045 0.9945 -11.4016 22.1463)" width="11.28" height="2"/>
	</g>
	<g>
		<rect x="45.31" y="139.2" transform="matrix(0.9877 -0.1563 0.1563 0.9877 -21.2894 9.6881)" width="11.28" height="2"/>
	</g>
	<g>
		<rect x="199.41" y="114.8" transform="matrix(0.9877 -0.1563 0.1563 0.9877 -15.5802 33.4752)" width="11.28" height="2"/>
	</g>
	<g>
		<rect x="46.06" y="143.22" transform="matrix(0.9781 -0.2079 0.2079 0.9781 -28.8573 13.9014)" width="11.27" height="2"/>
	</g>
	<g>
		<rect x="198.67" y="110.78" transform="matrix(0.9781 -0.2079 0.2079 0.9781 -18.7774 44.9235)" width="11.27" height="2"/>
	</g>
	<g>
		<rect x="47.01" y="147.19" transform="matrix(0.9659 -0.2588 0.2588 0.9659 -36.5601 18.6762)" width="11.28" height="2"/>
	</g>
	<g>
		<rect x="197.71" y="106.81" transform="matrix(0.9659 -0.2588 0.2588 0.9659 -20.9744 56.3039)" width="11.28" height="2"/>
	</g>
	<g>
		<rect x="48.17" y="151.11" transform="matrix(0.9512 -0.3086 0.3086 0.9512 -44.3135 24.03)" width="11.28" height="2"/>
	</g>
	<g>
		<rect x="196.55" y="102.9" transform="matrix(0.9512 -0.3086 0.3086 0.9512 -22.1935 67.4666)" width="11.28" height="2"/>
	</g>
	<g>
		<rect x="49.54" y="154.96" transform="matrix(0.9336 -0.3584 0.3584 0.9336 -52.2278 30.1336)" width="11.28" height="2"/>
	</g>
	<g>
		<rect x="195.19" y="99.04" transform="matrix(0.9336 -0.3584 0.3584 0.9336 -22.5146 78.6199)" width="11.28" height="2"/>
	</g>
	<g>
		<rect x="51.1" y="158.73" transform="matrix(0.9137 -0.4065 0.4065 0.9137 -60.0308 36.8561)" width="11.28" height="2"/>
	</g>
	<g>
		<rect x="193.63" y="95.27" transform="matrix(0.9137 -0.4065 0.4065 0.9137 -21.9283 89.3138)" width="11.28" height="2"/>
	</g>
	<g>
		<rect x="52.86" y="162.42" transform="matrix(0.8909 -0.4542 0.4542 0.8909 -67.8457 44.4016)" width="11.28" height="2"/>
	</g>
	<g>
		<rect x="191.87" y="91.59" transform="matrix(0.8909 -0.4542 0.4542 0.8909 -20.5042 99.8161)" width="11.28" height="2"/>
	</g>
	<g>
		<rect x="54.81" y="166" transform="matrix(0.8661 -0.4999 0.4999 0.8661 -75.3935 52.5834)" width="11.28" height="2"/>
	</g>
	<g>
		<rect x="189.92" y="88" transform="matrix(0.8661 -0.4999 0.4999 0.8661 -18.3008 109.6818)" width="11.28" height="2"/>
	</g>
	<g>
		<rect x="56.94" y="169.49" transform="matrix(0.8386 -0.5447 0.5447 0.8386 -82.7721 61.6056)" width="11.28" height="2"/>
	</g>
	<g>
		<rect x="187.78" y="84.51" transform="matrix(0.8386 -0.5447 0.5447 0.8386 -15.3655 119.1686)" width="11.28" height="2"/>
	</g>
	<g>
		<rect x="59.25" y="172.85" transform="matrix(0.8088 -0.5881 0.5881 0.8088 -89.8289 71.3962)" width="11.28" height="2"/>
	</g>
	<g>
		<rect x="185.47" y="81.15" transform="matrix(0.8088 -0.5881 0.5881 0.8088 -11.7719 128.0881)" width="11.28" height="2"/>
	</g>
	<g>
		<rect x="61.74" y="176.09" transform="matrix(0.7774 -0.629 0.629 0.7774 -96.39 81.7943)" width="11.28" height="2"/>
	</g>
	<g>
		<rect x="182.99" y="77.91" transform="matrix(0.7774 -0.629 0.629 0.7774 -7.649 136.2018)" width="11.28" height="2"/>
	</g>
	<g>
		<rect x="64.39" y="179.2" transform="matrix(0.7432 -0.669 0.669 0.7432 -102.5753 93.1175)" width="11.28" height="2"/>
	</g>
	<g>
		<rect x="180.33" y="74.8" transform="matrix(0.7432 -0.669 0.669 0.7432 -2.965 143.8807)" width="11.28" height="2"/>
	</g>
	<g>
		<rect x="67.2" y="182.16" transform="matrix(0.7071 -0.7071 0.7071 0.7071 -108.179 105.1521)" width="11.28" height="2"/>
	</g>
	<g>
		<rect x="177.52" y="71.84" transform="matrix(0.7071 -0.7071 0.7071 0.7071 2.14 150.848)" width="11.28" height="2"/>
	</g>
	<g>
		<rect x="70.17" y="184.97" transform="matrix(0.669 -0.7432 0.7432 0.669 -113.1328 117.8934)" width="11.28" height="2"/>
	</g>
	<g>
		<rect x="174.56" y="69.03" transform="matrix(0.669 -0.7432 0.7432 0.669 7.5924 157.109)" width="11.28" height="2"/>
	</g>
	<g>
		<rect x="73.27" y="187.62" transform="matrix(0.629 -0.7774 0.7774 0.629 -117.3634 131.3299)" width="11.28" height="2"/>
	</g>
	<g>
		<rect x="171.45" y="66.38" transform="matrix(0.629 -0.7774 0.7774 0.629 13.3249 162.6742)" width="11.28" height="2"/>
	</g>
	<g>
		<rect x="76.51" y="190.11" transform="matrix(0.5881 -0.8088 0.8088 0.5881 -120.7326 145.1698)" width="11.28" height="2"/>
	</g>
	<g>
		<rect x="168.21" y="63.89" transform="matrix(0.5881 -0.8088 0.8088 0.5881 19.1323 167.3461)" width="11.28" height="2"/>
	</g>
	<g>
		<rect x="79.88" y="192.42" transform="matrix(0.5447 -0.8386 0.8386 0.5447 -123.2739 159.7683)" width="11.27" height="2"/>
	</g>
	<g>
		<rect x="164.85" y="61.58" transform="matrix(0.5447 -0.8386 0.8386 0.5447 25.136 171.4582)" width="11.27" height="2"/>
	</g>
	<g>
		<rect x="83.36" y="194.56" transform="matrix(0.4999 -0.8661 0.8661 0.4999 -124.8609 174.871)" width="11.28" height="2"/>
	</g>
	<g>
		<rect x="161.37" y="59.44" transform="matrix(0.4999 -0.8661 0.8661 0.4999 31.1662 174.8644)" width="11.28" height="2"/>
	</g>
	<g>
		<rect x="86.95" y="196.51" transform="matrix(0.4542 -0.8909 0.8909 0.4542 -125.4241 190.2747)" width="11.28" height="2"/>
	</g>
	<g>
		<rect x="157.78" y="57.5" transform="matrix(0.4542 -0.8909 0.8909 0.4542 37.074 177.5079)" width="11.28" height="2"/>
	</g>
	<g>
		<rect x="90.63" y="198.26" transform="matrix(0.4073 -0.9133 0.9133 0.4073 -124.9264 206.0238)" width="11.28" height="2"/>
	</g>
	<g>
		<rect x="154.09" y="55.74" transform="matrix(0.4073 -0.9133 0.9133 0.4073 42.8515 179.505)" width="11.28" height="2"/>
	</g>
	<g>
		<rect x="94.41" y="199.83" transform="matrix(0.3584 -0.9336 0.9336 0.3584 -123.2962 222.2507)" width="11.28" height="2"/>
	</g>
	<g>
		<rect x="150.32" y="54.17" transform="matrix(0.3584 -0.9336 0.9336 0.3584 48.5539 180.9958)" width="11.28" height="2"/>
	</g>
	<g>
		<rect x="98.26" y="201.19" transform="matrix(0.3086 -0.9512 0.9512 0.3086 -120.4886 238.6169)" width="11.28" height="2"/>
	</g>
	<g>
		<rect x="146.47" y="52.81" transform="matrix(0.3086 -0.9512 0.9512 0.3086 53.9819 181.8866)" width="11.28" height="2"/>
	</g>
	<g>
		<rect x="102.17" y="202.35" transform="matrix(0.2588 -0.9659 0.9659 0.2588 -116.5138 254.8557)" width="11.28" height="2"/>
	</g>
	<g>
		<rect x="142.55" y="51.65" transform="matrix(0.2588 -0.9659 0.9659 0.2588 58.9789 182.1645)" width="11.27" height="2"/>
	</g>
	<g>
		<rect x="106.14" y="203.3" transform="matrix(0.2079 -0.9781 0.9781 0.2079 -111.2993 271.1609)" width="11.28" height="2"/>
	</g>
	<g>
		<rect x="138.58" y="50.7" transform="matrix(0.2079 -0.9781 0.9781 0.2079 63.6637 182.015)" width="11.28" height="2"/>
	</g>
	<g>
		<rect x="110.16" y="204.05" transform="matrix(0.1563 -0.9877 0.9877 0.1563 -104.8306 287.3691)" width="11.28" height="2"/>
	</g>
	<g>
		<rect x="134.57" y="49.95" transform="matrix(0.1563 -0.9877 0.9877 0.1563 67.9602 181.4685)" width="11.28" height="2"/>
	</g>
	<g>
		<rect x="114.21" y="204.58" transform="matrix(0.1045 -0.9945 0.9945 0.1045 -97.1358 303.2794)" width="11.28" height="2"/>
	</g>
	<g>
		<rect x="130.52" y="49.42" transform="matrix(0.1045 -0.9945 0.9945 0.1045 71.7781 180.5578)" width="11.28" height="2"/>
	</g>
	<g>
		<rect x="118.28" y="204.9" transform="matrix(0.0527 -0.9986 0.9986 0.0527 -88.2291 318.7925)" width="11.28" height="2"/>
	</g>
	<g>
		<rect x="126.44" y="49.1" transform="matrix(0.0527 -0.9986 0.9986 0.0527 75.0897 179.3581)" width="11.28" height="2"/>
	</g>
	<g>
		<rect x="127" y="200.37" width="2" height="11.28"/>
	</g>
	<g>
		<rect x="127" y="44.35" width="2" height="11.28"/>
	</g>
</g>
</svg>
