<svg width="30" height="30" viewBox="0 0 30 30" fill="none" xmlns="http://www.w3.org/2000/svg">
<path d="M0.112324 17.3698V17.3688L0.111328 17.3652L0.112324 17.3698Z" fill="#A49B9B"/>
<path d="M0.587578 18.5848L0.580547 18.5757C0.580078 18.5752 0.580078 18.5752 0.580078 18.5752L0.587578 18.5848Z" fill="#A49B9B"/>
<path d="M0.587578 12.974L0.580547 12.9648C0.580078 12.9648 0.580078 12.9648 0.580078 12.9648L0.587578 12.974Z" fill="#A49B9B"/>
<path d="M0.112266 11.7599C0.112266 11.7599 0.112266 11.7584 0.111797 11.7574L0.111328 11.7559L0.112266 11.7599Z" fill="#A49B9B"/>
<path d="M29.9999 11.7769C30.0003 11.6339 29.9744 11.4955 29.9325 11.3642C29.9735 11.243 29.9952 11.1207 29.9957 11.0025C29.9966 10.8166 29.9485 10.6368 29.8755 10.4923L29.8732 10.4878C29.8511 10.4444 29.8209 10.3984 29.7874 10.3524V6.88073C29.9203 6.67614 29.9995 6.43015 29.9999 6.16601C29.9999 5.65481 29.7125 5.19563 29.2729 5.00222L18.412 0.137378H18.3804C18.1524 0.0515091 17.9159 0 17.676 0C17.4419 0 17.2072 0.0489965 16.9816 0.13229H16.9533L1.03517 7.009L0.995562 7.03274L0.9965 7.03425C0.793415 7.14889 0.643122 7.308 0.53947 7.46203C0.358124 7.73226 0.265311 8.0172 0.19787 8.27581L0.197402 8.27933C0.0961519 8.68091 0.0537302 9.08852 0.0278319 9.43357L0.0273632 9.43658C0.00333983 9.78308 0.00193359 10.076 5.85935e-05 10.1963V10.1994V10.2636C0.000527342 10.6843 0.0222069 11.2313 0.111738 11.7577L0.113144 11.7633C0.160312 12.0279 0.226698 12.2967 0.339842 12.5583L0.341717 12.5624L0.342128 12.5634C0.399666 12.6922 0.474549 12.8301 0.578201 12.9614L0.580545 12.9645C0.588044 12.9741 0.598943 12.9827 0.607439 12.9918C0.585759 13.019 0.557459 13.0453 0.539529 13.0731C0.357655 13.3428 0.26537 13.6277 0.197929 13.8858L0.19746 13.8883V13.8893C0.0962105 14.2909 0.0537888 14.699 0.0278905 15.044L0.0274218 15.0465C0.00328124 15.3935 0.00187499 15.686 0 15.8067V15.8093V15.8739C0.000468748 16.2952 0.0221483 16.8423 0.112148 17.3691L0.113085 17.3731C0.160253 17.6383 0.22664 17.9076 0.339784 18.1692L0.342069 18.1737C0.399139 18.3015 0.474021 18.4394 0.578142 18.5722L0.580486 18.5753C0.599353 18.5995 0.627126 18.6213 0.649275 18.6455C0.612009 18.6894 0.569177 18.7329 0.53947 18.7768C0.357596 19.047 0.265311 19.332 0.19787 19.5895L0.196464 19.5966L0.197402 19.5935C0.0961519 19.9951 0.0537302 20.4033 0.0278319 20.7483L0.0273632 20.7513C0.00333983 21.0978 0.00193359 21.3908 5.85935e-05 21.512V21.515V21.5776C0.000527342 21.9994 0.0222069 22.547 0.112207 23.0739L0.113144 23.0779C0.160312 23.3426 0.226698 23.6118 0.339842 23.8729L0.342128 23.878C0.399198 24.0063 0.47408 24.1437 0.578201 24.2765L0.570701 24.2674L0.580603 24.28C0.679978 24.4038 0.816618 24.5235 0.987242 24.6129L0.985367 24.6159L0.988648 24.6179L1.01267 24.6326L12.7283 29.8161L12.7552 29.8283C13.0148 29.942 13.2909 30 13.5684 30C13.8407 30 14.1135 29.944 14.3708 29.8313L29.3653 23.299V23.2985C29.5382 23.2238 29.7012 23.1021 29.8261 22.9066L29.8266 22.9071C29.8266 22.9071 29.827 22.9056 29.8275 22.9046C29.828 22.9041 29.8284 22.9041 29.8289 22.9031H29.8284C29.9467 22.7111 29.9947 22.5091 29.9957 22.3171C29.9967 22.1312 29.9485 21.9514 29.8756 21.8069L29.8733 21.8024V21.8029C29.8511 21.7594 29.8209 21.713 29.7875 21.667V18.1958C29.9204 17.9912 29.9995 17.7442 30 17.4806C30.0005 17.321 29.9689 17.1659 29.9156 17.0209C29.9694 16.8845 29.9952 16.7457 29.9957 16.6127C29.9967 16.4264 29.9485 16.2476 29.8756 16.102L29.8733 16.0975C29.8511 16.0546 29.8209 16.0081 29.7875 15.9621V12.4914C29.9202 12.2865 29.9994 12.04 29.9999 11.7769ZM12.6721 28.3884L1.51476 23.4513L1.47281 23.3987C1.43794 23.3406 1.39324 23.23 1.35738 23.0926C1.30183 22.887 1.26363 22.6193 1.24054 22.3486C1.21746 22.0783 1.20943 21.8061 1.20943 21.5778V21.5237C1.2113 21.3475 1.2174 20.8373 1.28525 20.3574C1.3173 20.1179 1.36681 19.8871 1.42798 19.7234L1.44076 19.6937L12.672 24.5782V28.3884H12.6721ZM12.6721 22.684L2.51981 18.1904L1.51482 17.7469L1.47287 17.6944C1.438 17.6358 1.3933 17.5257 1.35744 17.3888C1.30189 17.1822 1.26369 16.9149 1.2406 16.6443C1.21751 16.374 1.20949 16.1018 1.20949 15.8739V15.8194C1.21136 15.6426 1.21746 15.1329 1.28531 14.6525C1.31736 14.4136 1.36687 14.1822 1.42804 14.0191L1.44081 13.9893L12.6721 18.8738V22.684H12.6721ZM12.6721 13.5736V13.8049V17.0736L2.41194 12.532L1.51482 12.1364L1.47287 12.0834C1.438 12.0253 1.3933 11.9147 1.35744 11.7784C1.30189 11.5722 1.26369 11.305 1.2406 11.0337C1.21751 10.763 1.20949 10.4913 1.20949 10.2635V10.2089C1.21136 10.0326 1.21746 9.52245 1.28531 9.04254C1.31736 8.80309 1.36687 8.5723 1.42804 8.4086L1.44081 8.37933L12.6721 13.2634V13.5736H12.6721ZM28.5779 22.2436L13.9546 28.6126L13.916 28.6313C13.8033 28.6788 13.686 28.7035 13.5683 28.7035C13.5263 28.7035 13.4835 28.6969 13.442 28.6899V24.8323C13.4971 24.8389 13.5541 24.8424 13.6093 24.8424C13.8294 24.8424 14.0498 24.7959 14.2557 24.705L14.2699 24.6985L28.5779 18.438V22.2436H28.5779ZM28.5779 16.5174V16.5387L13.9546 22.9083L13.916 22.9265C13.8033 22.9745 13.686 22.9987 13.5683 22.9987C13.5263 22.9987 13.4835 22.9922 13.442 22.9861V19.1279C13.4971 19.1345 13.5541 19.1381 13.6093 19.1381C13.8294 19.1381 14.0498 19.0916 14.2557 19.0011L14.2699 18.9941L24.3053 14.6035L28.5779 12.7335V16.5174ZM28.5779 10.8131V10.9287L13.9546 17.2979L13.916 17.316C13.8033 17.364 13.686 17.3888 13.5683 17.3888C13.5263 17.3888 13.4835 17.3822 13.442 17.3757V13.8489V13.517C13.4971 13.5241 13.5541 13.5271 13.6093 13.5271C13.8294 13.5271 14.0498 13.4812 14.2557 13.3908L14.2699 13.3842L28.5779 7.1232V10.8131H28.5779Z" fill="#A49B9B"/>
<path d="M0.112324 23.0754V23.0744L0.111328 23.0713L0.112324 23.0754Z" fill="#A49B9B"/>
</svg>
