<svg width="24" height="30" viewBox="0 0 24 30" fill="none" xmlns="http://www.w3.org/2000/svg">
<path d="M24 3.98147H23.9978C23.9869 3.63401 23.723 3.35613 23.3944 3.34977V3.34857H22.1369L22.1365 27.3622L22.1369 27.3662C22.1369 27.724 21.8671 28.013 21.5317 28.0198V28.0218L2.47949 28.021C2.17409 28.021 1.92259 27.7844 1.87356 27.4744V26.0424H19.6155V26.0412C19.6196 26.0412 19.6234 26.0424 19.6271 26.0424C19.9677 26.0424 20.2431 25.7502 20.2431 25.388C20.2431 25.3856 20.2424 25.3832 20.2424 25.3832L20.2431 0.654767C20.2431 0.292995 19.9677 1.60734e-07 19.6271 0.000397712C19.6234 0.000397712 19.6196 0.00159009 19.6159 0.00159009V0H17.4616V5.17691V11.6534V13.8952C17.4616 14.0677 17.3295 14.2073 17.1671 14.2073C17.0817 14.2073 17.0065 14.1671 16.9526 14.1059L14.8317 11.853H14.8246C14.7774 11.7953 14.71 11.7572 14.6326 11.7572C14.5551 11.7572 14.4877 11.7953 14.4406 11.853H14.4335L12.2968 14.1226H12.2934C12.241 14.1743 12.1718 14.2077 12.0943 14.2077C11.9319 14.2077 11.8001 14.0677 11.8001 13.8956V11.6538V5.17731V0.000397712H0.616037C0.275458 0.000397712 0 0.292995 0 0.654767C0 0.663115 0.00224577 0.671464 0.00224577 0.679812V24.2295V29.321C0.00187151 29.3289 0 29.3365 0 29.3444C0 29.3524 0.00187151 29.3599 0.00224577 29.3679V29.3981H0.00523966C0.0314381 29.734 0.293048 29.9988 0.616037 29.9988L23.3836 30H23.3944V29.9988C23.7298 29.9924 23.9996 29.7034 23.9996 29.3456L23.9992 29.3417L24 3.98147Z" fill="#A49B9B"/>
</svg>
