<svg width="30" height="30" viewBox="0 0 30 30" fill="none" xmlns="http://www.w3.org/2000/svg">
<path d="M27.9545 23.1816H2.04541V25.9089H27.9545V23.1816Z" fill="#A49B9B"/>
<path d="M28.6364 27.2725H1.36364C1.00198 27.2725 0.655131 27.4161 0.3994 27.6719C0.143668 27.9276 0 28.2744 0 28.6361V29.9997H30V28.6361C30 28.2744 29.8563 27.9276 29.6006 27.6719C29.3449 27.4161 28.998 27.2725 28.6364 27.2725Z" fill="#A49B9B"/>
<path d="M8.18186 10.9092H5.45459V21.8183H8.18186V10.9092Z" fill="#A49B9B"/>
<path d="M16.3635 10.9092H13.6362V21.8183H16.3635V10.9092Z" fill="#A49B9B"/>
<path d="M24.5456 10.9092H21.8184V21.8183H24.5456V10.9092Z" fill="#A49B9B"/>
<path d="M29.25 6.40909L15 0L0.75 6.40909C0.527839 6.52931 0.341438 6.70617 0.209717 6.92172C0.0779951 7.13726 0.00564179 7.38382 0 7.63636V8.18181C0 8.54347 0.143668 8.89032 0.3994 9.14605C0.655131 9.40178 1.00198 9.54545 1.36364 9.54545H28.6364C28.998 9.54545 29.3449 9.40178 29.6006 9.14605C29.8563 8.89032 30 8.54347 30 8.18181V7.63636C29.9944 7.38382 29.922 7.13726 29.7903 6.92172C29.6586 6.70617 29.4722 6.52931 29.25 6.40909Z" fill="#A49B9B"/>
</svg>
