<svg width="30" height="24" viewBox="0 0 30 24" fill="none" xmlns="http://www.w3.org/2000/svg">
<path fill-rule="evenodd" clip-rule="evenodd" d="M16.875 12.8C16.875 12.5072 16.7766 12.2368 16.6153 12H13.3847C13.2234 12.2368 13.125 12.5072 13.125 12.8C13.125 13.6832 13.965 14.4 15 14.4C16.035 14.4 16.875 13.6832 16.875 12.8ZM18.75 12.8C18.75 14.5672 17.0709 16 15 16C12.9291 16 11.25 14.5672 11.25 12.8C11.25 12.5216 11.3006 12.2552 11.3822 12H0V20.8C0 22.5672 1.67906 24 3.75 24H26.25C28.3209 24 30 22.5672 30 20.8V12H18.6178C18.6994 12.2552 18.75 12.5216 18.75 12.8ZM18.75 3.2H11.25V2.4C11.25 1.9584 11.67 1.6 12.1875 1.6H17.8125C18.33 1.6 18.75 1.9584 18.75 2.4V3.2ZM26.25 3.2H20.625V1.6C20.625 0.7168 19.785 0 18.75 0H11.25C10.215 0 9.375 0.7168 9.375 1.6V3.2H3.75C1.67906 3.2 0 4.6328 0 6.4V10.4H30V6.4C30 4.6328 28.3209 3.2 26.25 3.2Z" fill="#A49B9B"/>
</svg>
