<svg width="30" height="30" viewBox="0 0 30 30" fill="none" xmlns="http://www.w3.org/2000/svg">
<path d="M29.3073 2.01522C29.3073 2.01522 28.0337 1.53306 26.9898 1.23906C24.1222 0.43079 18.0952 0 15 0C11.9049 0 5.8778 0.43079 3.01022 1.23906C1.96632 1.53312 0.692783 2.01522 0.692783 2.01522C0.25087 2.16309 -0.0363569 2.63293 0.00372125 3.14207L0.502178 9.48749C0.546534 10.045 0.968408 10.4734 1.47372 10.4734H6.44171C6.94011 10.4734 7.35829 10.0573 7.41161 9.50844L7.66239 6.91585C7.71202 6.40152 8.08426 5.99888 8.54997 5.95497C8.54997 5.95497 12.5627 5.55402 15 5.55402C17.4367 5.55402 21.45 5.95497 21.45 5.95497C21.9158 5.99882 22.288 6.40152 22.3376 6.91585L22.589 9.50844C22.6417 10.0573 23.0599 10.4734 23.5584 10.4734H28.5258C29.0316 10.4734 29.4535 10.045 29.4978 9.48749L29.9963 3.14207C30.0364 2.63293 29.7492 2.16309 29.3073 2.01522Z" fill="#A49B9B"/>
<path d="M20.9475 7.25781H17.7034V10.2502H12.2967V7.25781H9.05265C9.05265 7.25781 8.51195 15.038 2.02393 20.7236C2.02393 22.8183 2.02393 29.1519 2.02393 29.1519C2.02393 29.6201 2.36711 30 2.79004 30H27.21C27.633 30 27.9762 29.6201 27.9762 29.1519C27.9762 29.1519 27.9762 22.8183 27.9762 20.7236C21.4881 15.038 20.9475 7.25781 20.9475 7.25781ZM19.8497 23.7832V26.2092H17.6585V23.7832H19.8497ZM19.8497 19.9468V22.3729H17.6585V19.9468H19.8497ZM17.6585 18.536V16.1105H19.8497V18.536H17.6585ZM16.0956 23.7832V26.2092H13.9044V23.7832H16.0956ZM16.0956 19.9468V22.3729H13.9044V19.9468H16.0956ZM16.0956 16.1105V18.536H13.9044V16.1105H16.0956ZM12.3416 23.7832V26.2092H10.1503V23.7832H12.3416ZM12.3416 19.9468V22.3729H10.1503V19.9468H12.3416ZM12.3416 16.1105V18.536H10.1503V16.1105H12.3416Z" fill="#A49B9B"/>
</svg>
