<svg width="24" height="30" viewBox="0 0 24 30" fill="none" xmlns="http://www.w3.org/2000/svg">
<path fill-rule="evenodd" clip-rule="evenodd" d="M12 0C5.37709 0 0 5.28112 0 11.7858C0 14.7623 1.80436 18.3012 4.03527 21.4491C7.24146 25.9749 11.2495 29.7067 11.2495 29.7067C11.6705 30.0978 12.3295 30.0978 12.7505 29.7067C12.7505 29.7067 16.7585 25.9749 19.9647 21.4491C22.1956 18.3012 24 14.7623 24 11.7858C24 5.28112 18.6229 0 12 0ZM12 5.89291C8.688 5.89291 6 8.53293 6 11.7858C6 15.0387 8.688 17.6787 12 17.6787C15.312 17.6787 18 15.0387 18 11.7858C18 8.53293 15.312 5.89291 12 5.89291ZM12 8.03579C14.1076 8.03579 15.8182 9.7158 15.8182 11.7858C15.8182 13.8558 14.1076 15.5359 12 15.5359C9.89236 15.5359 8.18182 13.8558 8.18182 11.7858C8.18182 9.7158 9.89236 8.03579 12 8.03579Z" fill="#A49B9B"/>
</svg>
