<svg width="30" height="30" viewBox="0 0 30 30" fill="none" xmlns="http://www.w3.org/2000/svg">
<path d="M15 0C6.71625 0 0 6.71625 0 15C0 23.2838 6.71625 30 15 30C23.2838 30 30 23.2838 30 15C30 6.71625 23.2838 0 15 0ZM15 26.25C11.5997 26.25 8.55844 24.7341 6.49453 22.35C7.50141 20.1675 9.31453 18.435 11.5612 17.5472C10.2394 16.5159 9.375 14.9288 9.375 13.125C9.375 10.0195 11.8927 7.5 15 7.5C18.1073 7.5 20.625 10.0195 20.625 13.125C20.625 14.9288 19.7606 16.5159 18.4387 17.5472C20.6855 18.4355 22.4981 20.1675 23.5055 22.35C21.4416 24.7341 18.4003 26.25 15 26.25Z" fill="#A49B9B"/>
</svg>
