<svg width="30" height="20" viewBox="0 0 30 20" fill="none" xmlns="http://www.w3.org/2000/svg">
<path d="M28.883 0H1.11684C0.500647 0 0 0.466471 0 1.04176V18.9581C0 19.5335 0.500647 20 1.11684 20H28.883C29.4995 20 30 19.5335 30 18.9581V1.04176C30 0.466471 29.4995 0 28.883 0ZM27.8801 17.4433C27.8801 17.9213 27.4558 18.3087 26.9325 18.3087H25.3761V4.64271L15.7021 10.5004C15.4893 10.6293 15.2446 10.6934 15 10.6934C14.7554 10.6934 14.5106 10.6293 14.2979 10.5004L4.62402 4.64271V18.3087H3.06746C2.54436 18.3087 2.1199 17.9213 2.1199 17.4433V2.55659C2.1199 2.07859 2.54423 1.69118 3.06746 1.69118H4.35105L15.0001 8.13918L25.6492 1.69118H26.9328C27.4559 1.69118 27.8804 2.07859 27.8804 2.55659V17.4433H27.8801Z" fill="#A49B9B"/>
</svg>
