<svg width="30" height="30" viewBox="0 0 30 30" fill="none" xmlns="http://www.w3.org/2000/svg">
<path d="M28.3333 10.9091H25V7.5C25 5.51088 24.0342 3.60322 22.3151 2.1967C20.5961 0.790177 18.2645 0 15.8333 0H14.1667C11.7355 0 9.40394 0.790177 7.68485 2.1967C5.96577 3.60322 5 5.51088 5 7.5V10.9091H1.66667C1.22464 10.9091 0.800716 11.0528 0.488155 11.3085C0.175595 11.5642 0 11.9111 0 12.2727V28.6364C0 28.998 0.175595 29.3449 0.488155 29.6006C0.800716 29.8563 1.22464 30 1.66667 30H28.3333C28.7754 30 29.1993 29.8563 29.5118 29.6006C29.8244 29.3449 30 28.998 30 28.6364V12.2727C30 11.9111 29.8244 11.5642 29.5118 11.3085C29.1993 11.0528 28.7754 10.9091 28.3333 10.9091ZM8.33333 7.5C8.33333 6.23419 8.94792 5.02023 10.0419 4.12517C11.1358 3.23011 12.6196 2.72727 14.1667 2.72727H15.8333C17.3804 2.72727 18.8642 3.23011 19.9581 4.12517C21.0521 5.02023 21.6667 6.23419 21.6667 7.5V10.9091H8.33333V7.5ZM7.5 22.5C7.00555 22.5 6.5222 22.38 6.11107 22.1553C5.69995 21.9305 5.37952 21.6111 5.1903 21.2373C5.00108 20.8635 4.95157 20.4523 5.04804 20.0555C5.1445 19.6587 5.3826 19.2943 5.73223 19.0082C6.08186 18.7221 6.52732 18.5273 7.01227 18.4484C7.49723 18.3695 7.99989 18.41 8.45671 18.5648C8.91352 18.7196 9.30397 18.9818 9.57867 19.3182C9.85338 19.6545 10 20.05 10 20.4545C10.0116 20.7257 9.95494 20.996 9.83342 21.2484C9.7119 21.5009 9.52817 21.7302 9.29366 21.9221C9.05916 22.114 8.77889 22.2643 8.47031 22.3637C8.16173 22.4631 7.83144 22.5095 7.5 22.5ZM15 22.5C14.5055 22.5 14.0222 22.38 13.6111 22.1553C13.2 21.9305 12.8795 21.6111 12.6903 21.2373C12.5011 20.8635 12.4516 20.4523 12.548 20.0555C12.6445 19.6587 12.8826 19.2943 13.2322 19.0082C13.5819 18.7221 14.0273 18.5273 14.5123 18.4484C14.9972 18.3695 15.4999 18.41 15.9567 18.5648C16.4135 18.7196 16.804 18.9818 17.0787 19.3182C17.3534 19.6545 17.5 20.05 17.5 20.4545C17.5116 20.7257 17.4549 20.996 17.3334 21.2484C17.2119 21.5009 17.0282 21.7302 16.7937 21.9221C16.5592 22.114 16.2789 22.2643 15.9703 22.3637C15.6617 22.4631 15.3314 22.5095 15 22.5ZM22.5 22.5C22.0055 22.5 21.5222 22.38 21.1111 22.1553C20.7 21.9305 20.3795 21.6111 20.1903 21.2373C20.0011 20.8635 19.9516 20.4523 20.048 20.0555C20.1445 19.6587 20.3826 19.2943 20.7322 19.0082C21.0819 18.7221 21.5273 18.5273 22.0123 18.4484C22.4972 18.3695 22.9999 18.41 23.4567 18.5648C23.9135 18.7196 24.304 18.9818 24.5787 19.3182C24.8534 19.6545 25 20.05 25 20.4545C25.0116 20.7257 24.9549 20.996 24.8334 21.2484C24.7119 21.5009 24.5282 21.7302 24.2937 21.9221C24.0592 22.114 23.7789 22.2643 23.4703 22.3637C23.1617 22.4631 22.8314 22.5095 22.5 22.5Z" fill="#A49B9B"/>
</svg>
